# xmcd
#
# Track frame offsets:
# 150
# 23760
# 46725
# 72045
# 98302
# 117545
# 135870
# 158850
# 177230
# 195460
# 220495
# 247834
# 270455
# 290582
#
# Disc length: 4206 seconds
#
#
# Revision: 2
# Processed by: cddbd v1.5.1PL0 Copyright (c) Steve Scherf et al.
# Submitted via: FreeRIP 2.90 
#
DISCID=b7106c0e
DTITLE=Mia Martini - 1996
DYEAR=1996
DGENRE=POP
TTITLE0=Piccolo uomo
TTITLE1=Almeno tu nell'universo
TTITLE2=I treni a vapore
TTITLE3=Diamante
TTITLE4=Fiume Sand Creek
TTITLE5=Gli uomini non cambiano
TTITLE6=Tutto sbagliato baby
TTITLE7=E non finisce mica il cielo
TTITLE8=Donna
TTITLE9=La musica che gira intorno
TTITLE10=Stella di mare
TTITLE11=Dillo alla luna
TTITLE12=La canzone popolare
TTITLE13=Mimì sarà
EXTD=
EXTT0=
EXTT1=
EXTT2=
EXTT3=
EXTT4=
EXTT5=
EXTT6=
EXTT7=
EXTT8=
EXTT9=
EXTT10=
EXTT11=
EXTT12=
EXTT13=
PLAYORDER=
